<mxfile host="drawio-plugin" modified="2021-12-01T02:33:35.078Z" agent="5.0 (X11; Linux x86_64) AppleWebKit/537.36 (KHTML, like Gecko) Chrome/89.0.4389.114 Safari/537.36" etag="gcJsXfE4eKkWHAawrjtt" version="14.7.4" type="embed"><diagram id="5x-vsjhNdAuQ0WnS26Kl" name="Page-1"><mxGraphModel dx="1803" dy="723" grid="1" gridSize="10" guides="1" tooltips="1" connect="1" arrows="1" fold="1" page="1" pageScale="1" pageWidth="827" pageHeight="1169" math="0" shadow="0"><root><mxCell id="0"/><mxCell id="1" parent="0"/><mxCell id="D52OfgG-iWVq30eApAfk-8" value="" style="rounded=0;whiteSpace=wrap;html=1;" parent="1" vertex="1"><mxGeometry x="-77.5" y="254.5" width="667.5" height="500" as="geometry"/></mxCell><mxCell id="D52OfgG-iWVq30eApAfk-32" style="edgeStyle=none;rounded=0;orthogonalLoop=1;jettySize=auto;html=1;entryX=0;entryY=0.5;entryDx=0;entryDy=0;" parent="1" source="D52OfgG-iWVq30eApAfk-1" target="D52OfgG-iWVq30eApAfk-9" edge="1"><mxGeometry relative="1" as="geometry"/></mxCell><mxCell id="D52OfgG-iWVq30eApAfk-47" style="edgeStyle=orthogonalEdgeStyle;rounded=0;orthogonalLoop=1;jettySize=auto;html=1;entryX=1;entryY=0.5;entryDx=0;entryDy=0;" parent="1" source="D52OfgG-iWVq30eApAfk-1" target="D52OfgG-iWVq30eApAfk-46" edge="1"><mxGeometry relative="1" as="geometry"/></mxCell><mxCell id="D52OfgG-iWVq30eApAfk-48" style="edgeStyle=orthogonalEdgeStyle;rounded=0;orthogonalLoop=1;jettySize=auto;html=1;exitX=0;exitY=0.5;exitDx=0;exitDy=0;" parent="1" source="D52OfgG-iWVq30eApAfk-1" target="D52OfgG-iWVq30eApAfk-45" edge="1"><mxGeometry relative="1" as="geometry"/></mxCell><mxCell id="D52OfgG-iWVq30eApAfk-1" value="pradella-iam-service" style="rounded=0;whiteSpace=wrap;html=1;" parent="1" vertex="1"><mxGeometry x="31.25" y="490" width="220" height="70" as="geometry"/></mxCell><mxCell id="D52OfgG-iWVq30eApAfk-3" value="&lt;ul style=&quot;border: 0px; font-family: roboto, helvetica, arial, sans-serif; font-size: 13px; font-style: normal; font-weight: 400; margin: 0px 0px 24px 24px; outline: 0px; padding: 0px; vertical-align: baseline; list-style: disc; color: rgb(66, 66, 66); letter-spacing: normal; text-indent: 0px; text-transform: none; word-spacing: 0px; background-color: rgb(255, 255, 255); text-align: justify;&quot;&gt;&lt;li style=&quot;border: 0px ; font-family: inherit ; font-size: 13px ; font-style: inherit ; font-weight: 400 ; margin: 0px ; outline: 0px ; padding: 0px ; vertical-align: baseline&quot;&gt;&lt;span style=&quot;border: 0px ; font-family: inherit ; font-size: 13px ; font-style: inherit ; font-weight: 400 ; margin: 0px ; outline: 0px ; padding: 0px ; vertical-align: baseline&quot;&gt;&lt;font style=&quot;border: 0px ; font-family: inherit ; font-size: 13px ; font-style: inherit ; font-weight: inherit ; margin: 0px ; outline: 0px ; padding: 0px ; vertical-align: inherit&quot;&gt;&lt;font style=&quot;border: 0px ; font-family: inherit ; font-size: 13px ; font-style: inherit ; font-weight: inherit ; margin: 0px ; outline: 0px ; padding: 0px ; vertical-align: inherit&quot;&gt;Single Sign-On&lt;/font&gt;&lt;/font&gt;&lt;/span&gt;&lt;/li&gt;&lt;li style=&quot;border: 0px ; font-family: inherit ; font-size: 13px ; font-style: inherit ; font-weight: 400 ; margin: 0px ; outline: 0px ; padding: 0px ; vertical-align: baseline&quot;&gt;&lt;span style=&quot;border: 0px ; font-family: inherit ; font-size: 13px ; font-style: inherit ; font-weight: 400 ; margin: 0px ; outline: 0px ; padding: 0px ; vertical-align: baseline&quot;&gt;&lt;font style=&quot;border: 0px ; font-family: inherit ; font-size: 13px ; font-style: inherit ; font-weight: inherit ; margin: 0px ; outline: 0px ; padding: 0px ; vertical-align: inherit&quot;&gt;&lt;font style=&quot;border: 0px ; font-family: inherit ; font-size: 13px ; font-style: inherit ; font-weight: inherit ; margin: 0px ; outline: 0px ; padding: 0px ; vertical-align: inherit&quot;&gt;Protocolos de autenticação, incluindo MFA&lt;/font&gt;&lt;/font&gt;&lt;/span&gt;&lt;/li&gt;&lt;li style=&quot;border: 0px ; font-family: inherit ; font-size: 13px ; font-style: inherit ; font-weight: 400 ; margin: 0px ; outline: 0px ; padding: 0px ; vertical-align: baseline&quot;&gt;&lt;span style=&quot;border: 0px ; font-family: inherit ; font-size: 13px ; font-style: inherit ; font-weight: 400 ; margin: 0px ; outline: 0px ; padding: 0px ; vertical-align: baseline&quot;&gt;&lt;font style=&quot;border: 0px ; font-family: inherit ; font-size: 13px ; font-style: inherit ; font-weight: inherit ; margin: 0px ; outline: 0px ; padding: 0px ; vertical-align: inherit&quot;&gt;&lt;font style=&quot;border: 0px ; font-family: inherit ; font-size: 13px ; font-style: inherit ; font-weight: inherit ; margin: 0px ; outline: 0px ; padding: 0px ; vertical-align: inherit&quot;&gt;Gestão de Acesso&lt;/font&gt;&lt;/font&gt;&lt;/span&gt;&lt;/li&gt;&lt;li style=&quot;border: 0px ; font-family: inherit ; font-size: 13px ; font-style: inherit ; font-weight: 400 ; margin: 0px ; outline: 0px ; padding: 0px ; vertical-align: baseline&quot;&gt;&lt;span style=&quot;border: 0px ; font-family: inherit ; font-size: 13px ; font-style: inherit ; font-weight: 400 ; margin: 0px ; outline: 0px ; padding: 0px ; vertical-align: baseline&quot;&gt;&lt;font style=&quot;border: 0px ; font-family: inherit ; font-size: 13px ; font-style: inherit ; font-weight: inherit ; margin: 0px ; outline: 0px ; padding: 0px ; vertical-align: inherit&quot;&gt;&lt;font style=&quot;border: 0px ; font-family: inherit ; font-size: 13px ; font-style: inherit ; font-weight: inherit ; margin: 0px ; outline: 0px ; padding: 0px ; vertical-align: inherit&quot;&gt;Monitoramento Comportamental de Identidade&lt;/font&gt;&lt;/font&gt;&lt;/span&gt;&lt;/li&gt;&lt;li style=&quot;border: 0px ; font-family: inherit ; font-size: 13px ; font-style: inherit ; font-weight: 400 ; margin: 0px ; outline: 0px ; padding: 0px ; vertical-align: baseline&quot;&gt;&lt;span style=&quot;border: 0px ; font-family: inherit ; font-size: 13px ; font-style: inherit ; font-weight: 400 ; margin: 0px ; outline: 0px ; padding: 0px ; vertical-align: baseline&quot;&gt;&lt;font style=&quot;border: 0px ; font-family: inherit ; font-size: 13px ; font-style: inherit ; font-weight: inherit ; margin: 0px ; outline: 0px ; padding: 0px ; vertical-align: inherit&quot;&gt;&lt;font style=&quot;border: 0px ; font-family: inherit ; font-size: 13px ; font-style: inherit ; font-weight: inherit ; margin: 0px ; outline: 0px ; padding: 0px ; vertical-align: inherit&quot;&gt;Diretórios universais centralizados&lt;/font&gt;&lt;/font&gt;&lt;/span&gt;&lt;/li&gt;&lt;li style=&quot;border: 0px ; font-family: inherit ; font-size: 13px ; font-style: inherit ; font-weight: 400 ; margin: 0px ; outline: 0px ; padding: 0px ; vertical-align: baseline&quot;&gt;&lt;span style=&quot;border: 0px ; font-family: inherit ; font-size: 13px ; font-style: inherit ; font-weight: 400 ; margin: 0px ; outline: 0px ; padding: 0px ; vertical-align: baseline&quot;&gt;&lt;font style=&quot;border: 0px ; font-family: inherit ; font-size: 13px ; font-style: inherit ; font-weight: inherit ; margin: 0px ; outline: 0px ; padding: 0px ; vertical-align: inherit&quot;&gt;&lt;font style=&quot;border: 0px ; font-family: inherit ; font-size: 13px ; font-style: inherit ; font-weight: inherit ; margin: 0px ; outline: 0px ; padding: 0px ; vertical-align: inherit&quot;&gt;Gerenciamento do ciclo de vida&lt;/font&gt;&lt;/font&gt;&lt;/span&gt;&lt;/li&gt;&lt;li style=&quot;border: 0px ; font-family: inherit ; font-size: 13px ; font-style: inherit ; font-weight: 400 ; margin: 0px ; outline: 0px ; padding: 0px ; vertical-align: baseline&quot;&gt;&lt;span style=&quot;border: 0px ; font-family: inherit ; font-size: 13px ; font-style: inherit ; font-weight: 400 ; margin: 0px ; outline: 0px ; padding: 0px ; vertical-align: baseline&quot;&gt;&lt;font style=&quot;border: 0px ; font-family: inherit ; font-size: 13px ; font-style: inherit ; font-weight: inherit ; margin: 0px ; outline: 0px ; padding: 0px ; vertical-align: inherit&quot;&gt;&lt;font style=&quot;border: 0px ; font-family: inherit ; font-size: 13px ; font-style: inherit ; font-weight: inherit ; margin: 0px ; outline: 0px ; padding: 0px ; vertical-align: inherit&quot;&gt;Autorização&lt;/font&gt;&lt;/font&gt;&lt;/span&gt;&lt;/li&gt;&lt;li style=&quot;border: 0px ; font-family: inherit ; font-size: 13px ; font-style: inherit ; font-weight: 400 ; margin: 0px ; outline: 0px ; padding: 0px ; vertical-align: baseline&quot;&gt;&lt;span style=&quot;border: 0px ; font-family: inherit ; font-size: 13px ; font-style: inherit ; font-weight: 400 ; margin: 0px ; outline: 0px ; padding: 0px ; vertical-align: baseline&quot;&gt;&lt;font style=&quot;border: 0px ; font-family: inherit ; font-size: 13px ; font-style: inherit ; font-weight: inherit ; margin: 0px ; outline: 0px ; padding: 0px ; vertical-align: inherit&quot;&gt;&lt;font style=&quot;border: 0px ; font-family: inherit ; font-size: 13px ; font-style: inherit ; font-weight: inherit ; margin: 0px ; outline: 0px ; padding: 0px ; vertical-align: inherit&quot;&gt;Federação&lt;/font&gt;&lt;/font&gt;&lt;/span&gt;&lt;/li&gt;&lt;/ul&gt;" style="text;whiteSpace=wrap;html=1;" parent="1" vertex="1"><mxGeometry x="-376.25" y="260" width="310" height="159.23" as="geometry"/></mxCell><mxCell id="D52OfgG-iWVq30eApAfk-4" value="linkedin" style="rounded=0;whiteSpace=wrap;html=1;" parent="1" vertex="1"><mxGeometry x="238.75" y="690" width="150" height="60" as="geometry"/></mxCell><mxCell id="D52OfgG-iWVq30eApAfk-5" value="meta" style="rounded=0;whiteSpace=wrap;html=1;" parent="1" vertex="1"><mxGeometry x="28.75" y="690" width="150" height="60" as="geometry"/></mxCell><mxCell id="D52OfgG-iWVq30eApAfk-6" value="" style="aspect=fixed;html=1;points=[];align=center;image;fontSize=12;image=img/lib/azure2/compute/Azure_Spring_Cloud.svg;" parent="1" vertex="1"><mxGeometry x="211.25" y="490" width="42.5" height="40" as="geometry"/></mxCell><mxCell id="D52OfgG-iWVq30eApAfk-7" value="" style="sketch=0;aspect=fixed;html=1;points=[];align=center;image;fontSize=12;image=img/lib/mscae/Docker.svg;" parent="1" vertex="1"><mxGeometry x="31.25" y="530" width="37.81" height="31" as="geometry"/></mxCell><mxCell id="D52OfgG-iWVq30eApAfk-17" style="edgeStyle=orthogonalEdgeStyle;rounded=0;orthogonalLoop=1;jettySize=auto;html=1;" parent="1" source="D52OfgG-iWVq30eApAfk-9" target="D52OfgG-iWVq30eApAfk-15" edge="1"><mxGeometry relative="1" as="geometry"><Array as="points"><mxPoint x="468.75" y="620"/><mxPoint x="503.75" y="620"/></Array></mxGeometry></mxCell><mxCell id="D52OfgG-iWVq30eApAfk-18" style="edgeStyle=orthogonalEdgeStyle;rounded=0;orthogonalLoop=1;jettySize=auto;html=1;" parent="1" source="D52OfgG-iWVq30eApAfk-9" target="D52OfgG-iWVq30eApAfk-4" edge="1"><mxGeometry relative="1" as="geometry"><Array as="points"><mxPoint x="468.75" y="620"/><mxPoint x="313.75" y="620"/></Array></mxGeometry></mxCell><mxCell id="D52OfgG-iWVq30eApAfk-19" value="&lt;span style=&quot;color: rgb(0, 0, 0); font-family: helvetica; font-size: 12px; font-style: normal; font-weight: 400; letter-spacing: normal; text-align: center; text-indent: 0px; text-transform: none; word-spacing: 0px; background-color: rgb(248, 249, 250); display: inline; float: none;&quot;&gt;enriquecer dados&amp;nbsp; cadastrais&lt;/span&gt;" style="edgeStyle=orthogonalEdgeStyle;rounded=0;orthogonalLoop=1;jettySize=auto;html=1;" parent="1" source="D52OfgG-iWVq30eApAfk-9" target="D52OfgG-iWVq30eApAfk-5" edge="1"><mxGeometry x="-0.1336" relative="1" as="geometry"><mxPoint x="253.75" y="590" as="targetPoint"/><Array as="points"><mxPoint x="468.75" y="620"/><mxPoint x="103.75" y="620"/></Array><mxPoint as="offset"/></mxGeometry></mxCell><mxCell id="D52OfgG-iWVq30eApAfk-9" value="pradella-account-service" style="rounded=0;whiteSpace=wrap;html=1;" parent="1" vertex="1"><mxGeometry x="358.75" y="491" width="220" height="70" as="geometry"/></mxCell><mxCell id="D52OfgG-iWVq30eApAfk-10" value="" style="aspect=fixed;html=1;points=[];align=center;image;fontSize=12;image=img/lib/azure2/compute/Azure_Spring_Cloud.svg;" parent="1" vertex="1"><mxGeometry x="538.75" y="490" width="42.5" height="40" as="geometry"/></mxCell><mxCell id="D52OfgG-iWVq30eApAfk-11" value="" style="sketch=0;aspect=fixed;html=1;points=[];align=center;image;fontSize=12;image=img/lib/mscae/Docker.svg;" parent="1" vertex="1"><mxGeometry x="358.75" y="530" width="37.81" height="31" as="geometry"/></mxCell><mxCell id="D52OfgG-iWVq30eApAfk-12" value="" style="shape=image;verticalLabelPosition=bottom;labelBackgroundColor=#ffffff;verticalAlign=top;aspect=fixed;imageAspect=0;image=https://marcas-logos.net/wp-content/uploads/2021/10/meta-logo.png;" parent="1" vertex="1"><mxGeometry x="134.38" y="725" width="44.37" height="25" as="geometry"/></mxCell><mxCell id="D52OfgG-iWVq30eApAfk-13" value="" style="shape=image;verticalLabelPosition=bottom;labelBackgroundColor=#ffffff;verticalAlign=top;aspect=fixed;imageAspect=0;image=https://cdn-icons-png.flaticon.com/512/174/174857.png;" parent="1" vertex="1"><mxGeometry x="363.75" y="725" width="25" height="25" as="geometry"/></mxCell><mxCell id="D52OfgG-iWVq30eApAfk-15" value="google" style="rounded=0;whiteSpace=wrap;html=1;" parent="1" vertex="1"><mxGeometry x="428.75" y="690" width="150" height="60" as="geometry"/></mxCell><mxCell id="D52OfgG-iWVq30eApAfk-14" value="" style="shape=image;verticalLabelPosition=bottom;labelBackgroundColor=#ffffff;verticalAlign=top;aspect=fixed;imageAspect=0;image=https://img.olhardigital.com.br/wp-content/uploads/2019/12/20191213091239.jpg;" parent="1" vertex="1"><mxGeometry x="531.62" y="720" width="47.13" height="30" as="geometry"/></mxCell><mxCell id="D52OfgG-iWVq30eApAfk-23" style="edgeStyle=orthogonalEdgeStyle;rounded=0;orthogonalLoop=1;jettySize=auto;html=1;" parent="1" source="D52OfgG-iWVq30eApAfk-20" target="D52OfgG-iWVq30eApAfk-21" edge="1"><mxGeometry relative="1" as="geometry"/></mxCell><mxCell id="D52OfgG-iWVq30eApAfk-20" value="user" style="shape=umlActor;verticalLabelPosition=bottom;verticalAlign=top;html=1;outlineConnect=0;" parent="1" vertex="1"><mxGeometry x="-30" y="270" width="30" height="60" as="geometry"/></mxCell><mxCell id="D52OfgG-iWVq30eApAfk-28" value="autenticação" style="rounded=0;orthogonalLoop=1;jettySize=auto;html=1;" parent="1" source="D52OfgG-iWVq30eApAfk-21" target="D52OfgG-iWVq30eApAfk-1" edge="1"><mxGeometry x="-0.3942" y="3" relative="1" as="geometry"><mxPoint as="offset"/></mxGeometry></mxCell><mxCell id="D52OfgG-iWVq30eApAfk-30" value="gestão de dados" style="rounded=0;orthogonalLoop=1;jettySize=auto;html=1;" parent="1" source="D52OfgG-iWVq30eApAfk-21" target="D52OfgG-iWVq30eApAfk-9" edge="1"><mxGeometry x="-0.3964" y="-2" relative="1" as="geometry"><mxPoint as="offset"/></mxGeometry></mxCell><mxCell id="D52OfgG-iWVq30eApAfk-21" value="front" style="rounded=0;whiteSpace=wrap;html=1;" parent="1" vertex="1"><mxGeometry x="230" y="270" width="150" height="60" as="geometry"/></mxCell><mxCell id="D52OfgG-iWVq30eApAfk-33" value="api-gateway&lt;br&gt;&amp;nbsp;&amp;lt;&amp;lt;a definir&amp;gt;&amp;gt;" style="rounded=0;whiteSpace=wrap;html=1;" parent="1" vertex="1"><mxGeometry x="105.08" y="400" width="399.84" height="50" as="geometry"/></mxCell><mxCell id="D52OfgG-iWVq30eApAfk-34" value="&lt;b&gt;&lt;font style=&quot;font-size: 17px&quot;&gt;observability&lt;/font&gt;&lt;/b&gt;" style="rounded=0;whiteSpace=wrap;html=1;horizontal=0;verticalAlign=top;" parent="1" vertex="1"><mxGeometry x="600" y="270" width="120" height="480" as="geometry"/></mxCell><mxCell id="D52OfgG-iWVq30eApAfk-35" value="&lt;b&gt;&lt;font style=&quot;font-size: 17px&quot;&gt;observability&lt;/font&gt;&lt;/b&gt;" style="rounded=0;whiteSpace=wrap;html=1;horizontal=0;verticalAlign=top;" parent="1" vertex="1"><mxGeometry x="600" y="255" width="120" height="500" as="geometry"/></mxCell><mxCell id="D52OfgG-iWVq30eApAfk-40" value="" style="shape=image;verticalLabelPosition=bottom;labelBackgroundColor=#ffffff;verticalAlign=top;aspect=fixed;imageAspect=0;image=https://wikiimg.tojsiabtv.com/wikipedia/en/thumb/a/a1/Grafana_logo.svg/1200px-Grafana_logo.svg.png;direction=north;" parent="1" vertex="1"><mxGeometry x="629.235" y="305.765" width="80" height="78.47" as="geometry"/></mxCell><mxCell id="D52OfgG-iWVq30eApAfk-41" value="" style="shape=image;verticalLabelPosition=bottom;labelBackgroundColor=#ffffff;verticalAlign=top;aspect=fixed;imageAspect=0;image=data:image/png,iVBORw0KGgoAAAANSUhEUgAAAS8AAACmCAMAAAC8yPlOAAAAwFBMVEX////aTjHmUizlSh7mUCnZRiXZRCHYPhb44NzlRRTpnY/tr6bmTiXlSyDkQgraTC7xpJTmj4D+9/Xxq6D88O7lRxn53dnreF/vmIbpakv3zMXZRSP++fjkPwD7493ZSSrpb1XsgmvoYDz0v7b40srnlYfdYEn0uKzoZEbkh3f2xbvukn/pbFLYOw/ifGrvu7PnWTftinXgb1vdXEP66ebqpZrcVjvfaFLieWbrfWXWLADgcl/jMgDxqJnvlYPzsaM6CrLIAAARnUlEQVR4nO1da1ujPBNGoFAqB62AtgV7ENtat9oq6uO7q/3//+pNhlMCCZR6qKL3h726NITMnZnJzCRUQfjF94bXDdtu4LrntrfvoXxxhP2Hq7vHwVKNsFQe745P+uG+h/UlEd5eWaoyGFrWQQbLag0UVfl7+8sZBbczVZUhyRSFoaJOH9r7HuRXQfdwqra4XCWaNlhOb7v7HuoXQHipKFVkJVqmXP50u3RvlBaLG2XIpKyl3PxkxsKrJZMXS5n1mTQiJVte/VjGOmzdQqtiW7hiKxjWMfXhR8Zlwb3CYUQNBEHl0YWgPAb7Hvzn43LJ8/JKB329LOHrwFpe/jAVC6c85TqwDnDYUMoX4vT+R4Vjfc76hzF4wC0eK2IMS1nsW4jPw0OZ9ixt3OSYsz4S7Tr7FuOzcMW1Raw4T9CmX+bwI6hXe5bjc+DdldF10IrUpkvk3dZwymyq3OxZlM+A91Ruacpt1I4wyFbAYXhwt19ZPgMVdB0o/aidmxqkunB5xjn4b7/CfDxuBkzBrXS9TPgSnmKDHN4Ih1wLbrpJHrMlt55uki/UJHa/ja+ooXDJ10nleK/yfDAOOYZlHQi38VeqG7f1ogtDtAqW8HWgnuxVog9FwI27lmFidMp50jry+Ji/B7YRx7c2NnAN+RVnbIVT8GFDO2keYAWzpkJmmkxYSlMLPE/8JAjzBSEqsswU91YcjnHXR8DwaW8SfSgeSrQEvBbmZ/g3u6HTStxZefatPOxJog9Fu0xJlrgmgd3U4IG+YwCf7viambLdNJRY44H1iFtgs6PKDvfWMIqvZqUp1MFwug+BPha8UCISOIqikNkpNnHPcStWN7sqKTjcg0QfCm9QVtCKk8a7oUX57lsliV755XyA1Wra1mSZs0+1qtMaUK7bVZNYoV1Rbx00rBhml9I1jOsMt8qSiqVCZZh8rKofNiwIK8toshpOsKRDKU9JHbldUT9sXX6qPB+Mcn9tJTF9+399+r5BVn4oN2gUUzTJg5ULO0wKy2E+LnjM3Jl3UL4D0qglkp84gmokJZwwH3c+ESSclCuYdf9Zwnw8yjcvrCH3xisieu1WGWRzNr1vSqOnFj8W6JAclK8ZB8PGlFq7FTsc/OzvkNzFLq9SIDVtiscvLV/FuSMbCyqqui/3+GpTCocV5lgSOZ1TfHUqDLIh+7cVkYDaL7mVOoYTVMSs6kdL8jmo8DtURaIU5UlVY8pg5YFTjWqyV+HAGhKylruvOl6noszaEAdWEU3UUIqqKth9E04d2hWbFSXuPo+qoo66tSv8wqhY1eqkMRUBRTNSokX5qvaefCV1tG8N/uGa2nxVZJAHgyZsRFYIWcd/Vfj7ZiyQFULW0Ym/VXz9re7jy+O/9wuanqoOmTfhJMVduZA16qJhRT7UjBprlVKoW++EldeFDspLQ98G0wq+tg/wq9w9dRjq26KKr62NqFt2yjDmqwEJEdMeyWtlBTAS9KYcs9cm2CPT39+r2e8BbHkayUs35ayhojKTrEbwxYon1K4XHF7dqwr8LoA626YfrF4WUDW9OgxsgdFtI9ZHVvkrOdbV70yHiLThFnUFV20pqjW9ug2ibSBWWtqI+ItVhCEUwUaKNqzWC0+xrg5dgldWrN+ILUhmOTq399WtVLAwF6UxD4SV7Px+HzDrOdZbT5wyY7FG1HPY20Nv3FzldNqEeqHHrEe/MbRk73w0oh7NeXVdeYuvWXDCrwaE99y07w27qzb7PFkjlkfuywZv0Ib/2CXbRpSj0dLPe/t61+oxb8O8IecBBN55E3W3/fs+b0Nz+c7j3he4daud1n+eujbFfZUcX7WGnfrg/lJMI6JVjC7/eHSrPvi/CtmI6AujspD8HmiMOVYfDHwXbFum/Q6weEak1genq0bUVhPwzlAoYbsuQs4hw4YEqxFsjpfe5YQuZ79p2Rhvj9Fh74W9H1+tZv0uDOdo8/vxNWjW+6IcBXs3vgaNel0UocsuiO7QE4uv5r3vzl4i34uvhpy8p8CS85342mI/7vuBtUXxTnw1pfBFo1O0yNbssC5mxfrEm7YCvjAYkblSH4VOGmmNGNxK39vQsJ/qIHBb8mrMsLToVVIQWjalTMjAJV/Dro5Lwa0SKk2LVCn8xztTWRVw8ohuNeHIPR/elGNZavnv2YccS27qbxem8B7ZhFVsVnBe2hreNy4PysNmEzYs/+ls9ju6w8dGFb3YsKfsUkVZVBAyb2lNfwBdCDcs4yp9V4r5DpLytxHHcbbAJau4o/I9GPP40g/58wqAW9Yf0+GeDnBZR6GXDSzh8OE+Fo8kWZwzmn3G36NrHTTh6GUNdG8YG4kq488weR1Ww/9+hqcnsRgWVWzQyjuxW4tRBWrMyZJasI+Lf7XJUh4fgiQG7boPj0VbtNSrn6dcEdy7oq1ZA7V1d3zZuTy+G6rFHwW21KdGFlO3RP9JZb03hYs7rENQQ3XalB9F2xXBX6XyPdAYA+XvD1sVmQg7ilr+g6OgcorS+VF/k68M/Sur7E8kWy11ePXTDZFGN4hehcydFLOsFlK++07Q+LrNDrDd28sna7lUVVVRFPTvcjl8urx1f2r4sCXsdhD0F/0gaP8S9Ytf/OIXv/jFL37xi++Ll9VkslrvexTfB0eOLBvjz39ud7E5e55PREPzNXly2ll8kzTkSBJFfQ98Lf45hi7Lsoggy7qkSaffoiy3N740MQfdf/4G9ZO98iU7mun7vqlJoGeG/vV3FfbJlzyZBaFt2+eLo4mGGdON8+o7Pxu0Y90nX/qI+P/KwIRNPn8kpTh/ma+oC1+FL8E7xYRpW/2q4GfBNTTJ6FGXvgxfQldEJqn3OO33gsAsjGhffPULfEVLgP+V3gMItC/DV1G/hC6OxpyLzx8LF1+IL4Z+Cae6KEovnz8WLr44X2vk8Y1r+Bi6CPDp/OW0Rw3Z3ax7K3E+fskHaza+B0Jeb3HWE1enm8y2uxfjlS73jtjxSnvz+twbjY/6RMDcdt32zEFBz7ztAqK4guArOBut9PkZOy1BQzidiJPRZZ86XeZBV/SBM+ifdkPB0Wgli6OzRdqSxddZxtfaN00NNe6ONUfXtazNbKJFiRRKoSYz6sGLf6b5D49+Jmq4ie5or3GDF12L7jEZOUQwwl0iSJqeabeIRuBAtmYC/s1ovoK5JuE+DXNeZMxDD0xGKZNLvu3jruhZG6Fr/46IC7NV1LVuaPKRx+drje0xuvEaU+cJ4UrCQ3aSFu4c4toYsrYih4qtRwtQYGKmbZwePO45u8sQcwuKNzZ1yGGhR2eSyDIhHgRdXVB8nfl6lsjlfUiwcmTcJXQqa3+yObKxPCbNV84NeaNs/KL8L+Tz1UM3OtFsYFVD+rXSIyniBhsYJNIbpHwOjMXf5PjqC3MskYQmCN8qoUd4PUmU0yu6SGnYuWzgB5jySjJxVqZrsTArpHLRuHWASfE10nCXjhSRliNs4+OOTHHeW5kSzFH6yGq+vAkekGQaOk4T9VOBy1eI4wnTTYflC2foX0PTHD9qcGICeb1ZYIfBZgLWYmba7qKvncWrIxrGevMyFkE1kZhjCWWmzycv6xXcIZHVvlDGg11tbM/zwiMD/UeOhXsejUY9IOx0hNHrZ3ytXzTREcdHs6MeTFsy6ggzPExtjL2UF57hSTASqbfga41ayPpR6Hl2cLTyE/EYfGEblOPsAw9LQwoj++v+eRgdKer7oN3pkZkXH+Y2HWobjVMe6aI5BtfsrSGl76Hhm2s7I1z0ieHO0Vi161SaiU7xyVkf5Yks+y+RY3HBBEhJzvEwzNRRuJgwLTGDSr7O8aCdtMEs8R5FviBcjd2X8CKB7Poq67qLHywbhPu5AELSlDME9RPN1ERf8eBkSdTSycMLnmicZdKjHqSULiQOzjEyZemz+UKeyUjbePgWYtaiKSD8Kk4SZDl225V8YcGlE6GAAl990Gw/tvSNE/lgojiAjRP7J3LwDplyAl+k+N4qKhMRhPzRSYZtHC9MyEX2Al0xUgXj8SWaJB/kPKMe0CikM/IWHCZpcRheyRf+j8Yoa+X4sl9hUfCT6B4UQfSJYdmGTIoSAS9iqfg22KtMiA+siw7h4PuQcyWz8OLkZ0BASiwbHtGaxRc9DOQCCFHQoiXrVJzj4l5iD1bJ11zm8yWvTi4CN0S+e6QZMG2pIuJ5Th8CAAbz2SVcTLoHviQykAFnQAkHOVdKEdI/WaZ7xE40tSYeXxI1DDwrySohtLXcGKLHiPGSVcnXiJPjwETLEg4NUGwAy7JOrHXAl0aehoRZPM314mETTLq3zfxKJYDzpEpEoyxmgYnPy4ZnwEk8IIcveU5dAoN0YgpPnKJ+POvpuCr5gv4ZZdN+rn4vG/6IaAV8UdOIlcfZ5Ls5JVgE/XKo6EqX8wYHMXGsxlgxtFxwjoVPHR6HL/2ZugR+04zHiufDyA0Sgslo7qvXR1i0tIKgEV86hMG67pjimho45kteEW4A+ikaNkyHHn0G/dIpvrB/oxl5NTKdgiSic0IBy5bm09vx5fmEXsM6dUh1ucH6FU91dfz1CsQ4KCQs8rUa4bB71Ruf5I/WAl+k2oPSG4VNStDDxDf4W/CF5U0CCqwLoiFRMMhoaju+gKOYry5IS3cJSUA8R1y+MrdwqkU5jfRKNoOh/MmLT/FA8QXrg1xIloHGOAjZSr9IvvIpYoJ0XFvqF8FXWNgmjLE9X8KRGWVZhj/OHBJjKCTYfOkFvnAOlMQHtfULwjPNLMCnkrZafMGKLBe7NP9V2CO57Lgj04gYk9IVbxe+RL1gj5F+RX5uJ/2SgrCA8+QxPL7oZTqvX/Kq2GV4HtvANnwhsda+FNUTkoC0Ll8BnVclgADMjD7X1i8c7Gtl+wX19cvGfIn8HiO+6FdsGHyhhi9RKStJduvyFWIy8ot/tFQnAX5t/cKxhVb2g8b1+YKIT+Kfa+gaRTGYfCFcQ8w+5g6FRIEvwRRZvWIXZLxGn2vzhT+X7hfswFePk//FgE1DjX4r6Q+HL6gXyLEPqs3XWM+qPSmiqCx+fG2+Ao3RJQlYZOrxBXPAEj4Gzg/pOQIK2bfIWbWkNl9QvDFzBolT/3TVrM1XF6fw+S5JAKH0EYUqvqjqDQOnVHKO0deYloMxzhxGbb48ubj97cKjkuylNl8Q4Ot0MkgB+NKpS1V8RYsuVc8p3C9K5DoPUSCbL0j+d+RLOIEVkuy3GwVQyQpXe32MokuJfxoVoimNWpQr+boAF8Hddcb6R5VMXqHmZDAZxsYbJ6b1+RJwsZiongo29q2iltaA6vMVFRydMb2eZcbkAZ+UKJV8CblR5QFxlZnw6a0dEbKyxEhCwpQXhDvYga+2D4+6jvXpQoe8LIsdd+ArmgPDSHd2u+7JitANQvYwu7+cr3OofGrzRTISOzjzMwMEMxFNSA7D2QpXyyVC49b6SzKWC4g94rVhB74Q33gkhjM6mZ28ivAfZ5R9vQtfNhw7kx1nMr6+vn6eGJpE2udFlD4bE1GPiyXVfCHR4OyfJvXW19frU1HSDCKC8GCKkBT6BD1WFrUzXKpKSyKSLDm9o9lssxYh/JqnndbnS+hD+UDEG38GpAsm6Xt24Uuw/0QZsqwbhgEbjuRjY+Hw1uv2fAmBIUV5e9onuYXgammfWH/GEOMmXUZpn+Q4DghopBsYfVOWy/jS0NfFlct+9o2kqCDr5oQKzm0f77/TfOmyTAcM+Pw87ZE2jpNuVeO6pUmuXqEsxc8zuvH9ui7l8kdT13WfjFG7cfqXDNTxyXk9Fx05fRh2x3rW5cbPBiMb/nM6lECcTCb58nKGxQp9PWJ84a5XpoNhis+5l/dt3OWE4quHLohUtA3vZ9CLd3fT000t6tSZX9MJkr02NEeSHDOeiE3vz58/9IrqzdGlOZ0ThmcTB8apmdpkPKOTVG8zMSMRIl98SnQZbnrJjeL6XY4/e+7FZrO5cN/z8LntLma404CRfduLzdHJDo8Lg4vZ5mLhhqzg1Z1tZrw+wwCPZdH+Bqfrf/GLn4j/A5I2oZZ7nv0yAAAAAElFTkSuQmCC;direction=north;" parent="1" vertex="1"><mxGeometry x="635.82" y="434" width="71.77" height="131" as="geometry"/></mxCell><mxCell id="D52OfgG-iWVq30eApAfk-42" value="" style="shape=image;verticalLabelPosition=bottom;labelBackgroundColor=#ffffff;verticalAlign=top;aspect=fixed;imageAspect=0;image=https://vorozhko.net/wp-content/uploads/2020/06/jaeger_logo.png;direction=north;" parent="1" vertex="1"><mxGeometry x="608.545" y="580.205" width="110" height="179.59" as="geometry"/></mxCell><mxCell id="D52OfgG-iWVq30eApAfk-45" value="" style="dashed=0;outlineConnect=0;html=1;align=center;labelPosition=center;verticalLabelPosition=bottom;verticalAlign=top;shape=mxgraph.webicons.mongodb;gradientColor=#DFDEDE" parent="1" vertex="1"><mxGeometry x="-50" y="533" width="40" height="30" as="geometry"/></mxCell><mxCell id="D52OfgG-iWVq30eApAfk-46" value="" style="shape=image;verticalLabelPosition=bottom;labelBackgroundColor=#ffffff;verticalAlign=top;aspect=fixed;imageAspect=0;image=data:image/png,iVBORw0KGgoAAAANSUhEUgAAAOEAAADhCAMAAAAJbSJIAAAA7VBMVEX///+kHhHYLCCtIRV6DAChHRCiEgC8Z2HXLCCgAADYKRyyIhWoHxLNKR3TKx/CJhrWFwCBDwOjGAbXJRevRT7Pk4++JRm4IxfVAADXHw7HKBvWGwZ1CQCjGwz32df65eT87u3yw8H+9/boj4rbPzXcSkH20tDqmZXurarjcGrsp6PwubbniYTdUUnlfXj21dPgX1jmyMbxv7zaNyzmg36MEwnhaGL76ejUoZ7EenXhvbvarqvLjIeqMCa2V1DidG7ZlI+3EgDFSULcRz7bPDLAcWvRe3XUZF6sNy3HaGLXp6OsNCnGgHu0T0e4Xlfw73jRAAAQD0lEQVR4nO1da1vayhY2UCIJCKOpkEC5hbuI4mV7rfV0q+d0d7v7/3/OmSQoBGZmrTWg1P3k/dDnaQuTebPua03C1laCBAkSJEiQIEGCBAkSJEiQIAEZjVF/2D1LZR8m7VF905tZOy5HR2cuqzp2AMdjrn0/uNz0ptaHxsHEY56dmoftsOrk30GyORh7VSclgsO8yemm97ci/NHEZWJ6LyTZ+ce1Sb91ZCvpRfDc8cGH1NZ6u7Noe3JBOsPWpvdLhD94wNILwf2O3f44gvRb94wR6E1Jeu5k5G967xjU2w8ubHxCOCx7eLzp/QPwR2NvUTsp0rQ91h38xoI8vheEhs4Zwp/Ok2TufW/TTIS4PBBqp93hIV/idbjEzkT/7rjd3y9+tIaexLmwA26bh86SILlneWw3xuIv2cz7reJHo52Va6LthXZ1OmFVe+4fWbbNc5lGVfY17nbO+s0NE4vAnYurDH3Vw+iDjf4Dc4IP2lXW7Uc+89BTfNGuupPTjbud3nkKciS203j99L3Hqmzcf8lE/TPA0XJBtjeZtjYPupjMxTua/0q/MfvbiIFftr3qeFOJQOti3rJUYDIxjFFxhFeSG6g/Gn1CmHMuxIvUXewKvP4YNN+RHq/6sOILwOOCWARHKj+zeJeYffReiUD9CHQu8/R4JGw3hAv5Lik95xHm4eDtLdIfdNSxYfHOZ+UpWGPsSNobUpJV9+JtE4HekSxzEe6HVS9GTdV6jQMglgrumdvpi1VidVziYsMLPc99wCSX9fZyQgesXPXeRJCtiyrFuVSz+EjNlyaSdFhKYtu6aPQViaeIIDFIBx1HoiDX2RHwT9GhfYbs43hyf94ftOqNS9RGuIcmIugIrCMRaBwSK9gpbNtxPI8xbrpnD+PJUXvQEjvVxnFr0B6Ouw9Z+jU8Nl6xI+APHqi+TsSVk3U4Wbc/t3Szfjro349tFsBzHFvvMg5jR/qtnd4hJTYgwGa+9cENicG8CjvQJzy3o9URkPce9DHLT3twURFip5ze/aMEfcpm9PjRG4JRKlK+CDZSx9jLPoYY084W0xy7X77s5kFBBoUkPn40D85cR7HlYP7HnEKnO55cDO+HF5Nxt3PmhEoH7MPuRH6hgRAhF1+I3U+fPn358kcJckQ8fiBjFNCwdpjbuWiPjhvN+F1pHI/aF48M0GwWORtl8yJAoZjLp2cMA5K7BkKQzjnkdppBL0W6Aq8T2P2gIb9RfmPAM1eVBlYDn+ADInwR3zxDzvHTH2WIY9BRPmhK97fVUpZ9PB+8x9hz696Tr+JM+CcGKoaR9QkYhiRhQdpVJnE7jb667Kvim3vN/pm0S+jyq3fktzEmviWGoUWWCxBJXn+MFvcEZmY2a2P5heu1ZbZsd7ZaMhFy61vkt8gwtMhMBeJos3Esg/L7j0BscDxq4tCzJStWD+7F/7MsPjHDUJA5iKPDBjOdOgQzM+eRIsDpso+SRYVVBLe+vJCgiGFIEhKk7b5IcWTLO+uvm9LJ4evIvCUlFZ+CYSRIpUU6w2gfbUQ7aL6lSwCylZYVWR/MMBKkIg+YMhxhWpZMr2kg9SjzUIlPzRBKdLz/hLtAdZ2ZXqMSk15nK0oBKuyQJ6tq7fu+H2zC72JS5uoAIiPEADbwAIUSmSFPb8CCo2yFDLf+xMjQftBiqAjscXBBShypiCEXXxoM+oV0ZsrwM5gFBXgZAZJwiBPhdEdSQe4uia8IrpYtZQzjheEemB8EYG0ywTY+WERARHzuXNIFWDOKeU5wxjBTxrSA2ITWn7ycUAmmQkEua+vunPgysPhSqUo64DfH0MjkMWJ0vDa+q+X3Hb1DQwKL3H21PnWAj2BX8hG/eYYGjiOvoZFzyvo5vb86w6JF7k7FV0EsmS2+8osz5BzTGDl6brdfV0vSr/fHLmEsKMRCBRzmZwh+hZIx47fIMJAjRsd5edm5OOiJbbLRO7joMOLATLLZWSL+6RNcLIVfKcf4LTPkHI0SQtFTtlNlXqo7bA9GrV7vuH7c67VGg/bwIeUFJ9UpPIIz7VJ9ngoyh3KEqZ1cJs5PxJBzzORQ4THaW9itZi6bdq1JTeuAGmPZ7sXhSJ5VcUGWUPuJmZ+SYcAxXaHPDygIVICxx8l5vxW265Q9GxQKJRE/GcPQIFHKSkUkddd9HPZHx/6ru7pcleBOzhDyUzCkKCsKtsPFVrW52AatpfkC7kSNFDy6S/gpGQYk08U1KGsoturj5L7fqjeF7re/iggLQvNDMgyUFe7ayanZ3JG4LHC4x6oBaX2F2c/OYnSgMgyVFRWI4tRCH+uNzw9aiES2q62jleXoQGdooEPkjODjZNg/7Yk1chmHmjqaLQLiwzMMOFK8Du2EQg99rC0GUD1pDA2a17HZGfr0gI/uAcwDoZ4vDK+wDANB4r1OcHoA15o7p/QAIoiTFxnDBp5h5HXQgnRYqg8P1lG9xhiWcms1wUiEWIYGLdfhJQj0zISfJeooXj0D1KZWuLV1beG/RfI6DnBUckgrIinqyWFaN6+30jAp3+RVJMHrsCOp10Gc8J6Bpp4Bv+25m3t5R5CiEXodvCClh88uCU9DCUo/JWrW55O4QTxZNRpHXMsjgsMeRadALrA6mi2mSfS4AI3bpcud1IgcSbkOT1Eni+EDWxRS1ZPvzPyv0CquMmSOlKSVh4/YAYlLXDJDVc+oaeiJz4D5V3ckjxMtRxAkq86dtMcUhXT1NKY3nV9LGKrqf+5RV6SFj9lJSURRKOtMKPYyX7Z7bLJ47qA1YbayYJYujGpCRnCYFySt8PRbQz0X80rHPZ9X0eAc23RpqmVTk1Z30gJ0NFuhq6coSrPJzLE9zp19oasH2esoI6HG9WXBK3i0MxTgZPGS9HsYep11NCELZB1SdM2cSIj+mSD2ainr6g06neiguLHO/0KGkiJNR1lJSesyNMxPXZo72+rQlKVVK9NrErxO/GqrRQchzIjhROHY6DkTMWnVvxCcNhbyU4Z/KV13kFhoCJLWoNMwvzQYhIs8BY8Ybn8Hr68VItFeh/MjLo5waTuBTb8wNHOQd9ALkThl3aG6F4ylZ6Ob9sowY8B70fM6oGel80PkiIXydK+vDIOcHNapQllDkOr7TQ0PPM+HZTHntOYYciA4apQziuKDvBoqEMXa4XGGuIyE7vUkBoltzM+WwSQTO3HHH2doIA+c0CNzlJgXZvsrVDg90iKoMjRbWdzZEkNs+qzldTL5XLlULJbKuXyG+HWUeor8vYAhNuvSyXUClhkqOQOpnuINCRmiA5lOrkMHrvCUeQcJQwPbYdLJdYj8MHN2xTRKzhCbdQEHBVbmh1HPkuI2qxiiGxMa4QNHD2UrgBqpGRrYEkGrVIb4YfwdPCwFGaIbEzpNSBU/jBtQqieeoYGqxFIaKYrqgohZM87L4RhiQyRpwC6/FkppsDqDZYie4a8cPlDRAaOeU0zn3AiGBjZEruR1cLk1wRxqZpPAEDuE0WrQhctjzI/k0mrWdBD8hB+q4dqhGkkryvyIVY1pvky6TyhTfFyuQ/Q6yNKWpBs169tsSrpPOqiw9lwHxY+q+6b5c350eGWhDw1Fe0JVkQXUTc9k4LXIRXfNempuxVD/QT6Mgcp1QGXleSHID3enYsjFz5pEmmrSztRgzysqtQujC2TXHNx8W/Ry18tn+jkFZDtAskWEY6ZXZy/K5bDu0jsVtg6+r6mNtrTP0nLfCRNcdaY1s3vOOcYOnDX72apeGw1VYe2UZ+2nTNCUgrN5euawqPSOO/dOhfb04aP19nzjJIvlXPQUU3EH9p70NF6UE83eqZCde7hKp2jHVVho0OcHEt/uSd6pQEje5y6xwrMZcazhKM0Lpu/dOl0+YqalrGt5ImxdR2mmDP8KGYqn3FrKuuoTYVqzfIU3/66e42vN8EnPZqx8QcA2SvAcX2uGr3ngZM1HaYKzRxnMHF+nw6TzRBjZ/MASJ3hs6LVPo3T1WjN8orJqJGdAmRpNz2dzfOCogp7XwSqrhnuBMvZCbnGODx5V0BMkqglJDb5wLjw7vTLfTQS/ltXoa8PKSpYfvOT86ZyFOX4aMh1ipyRcVHnn6PID0/y4x1rsCMOmo9PXlq5KtW5YPZe2t9zzRpRCFXpfW9SfK5SISg+rpyCdFnX1Ed1CjcScV4Tlyuu9K1RK6bWrp3CiIJ5bIOp2La+TMfLpXI7XiAbxpAmmOJNsSDqZQSjrGqdpABAOWeodFLMnhLLqtDzogMsV1b1WTtcwTaa3muHPNgF2LNWOD5ofIpRVpx2ABdx1BoMXPCHFtLbXPMN/vTRYoCDKSdQMmCvKBrwOnHyg5s3IKTcig17PDP/1grDmIK+HnuPjvM6aBAnfUPyoxrxGMjRQTaa1nByChzUUBz4dcyPn+Ii6XSfXiV8DbEiS2pzW8xaFoYGahmkM+15XB82PFptq1vW0p/+T8k4FqD+i7XVg8yPmF6Y5e2T9M2VyiGlta42N1PyoXfg969vcOwD8H8R3KiC8DilEgtGP6sRq1t3NVgzX1KMKcMTCKyums0SUn+idCtSjCsF9B3MdTIiE+JFHNXvWj59L/AJN/VkjH1WAKywwn4P4kWOsaX2+lb0xxr+yiLqKyXWUDh5q71HzpJq5+E6TRdz+sKgHMhAVlsQgoQyCrJ41y9yGX8F18ovOEfY6y2VqBipZyOq5Z+W/4n7yqX5tUZ0OohQvFHNG9LxM+GcOEDy5Htuz/v6Jf01cc9/QUFb4yGKhUipzlCqgyInZbWB+NzCvGG6+WSb5bTXrebErOenj5vek9dsbzyZdWVd/sauG+d3t6/4Gu391p6GsK703gjzIN60fNyv9NODJNx1B6r43gvrQMy46QGh81REk4WVnLyCf4FlFPePwb//R4Eh8bwS5f65KzjQQhEhiPhd4HTw/ovnVLOuXOjmjw//5WSPXwZ05ofY99qwMMnkh4mSbnOtgOub09yGuVT3jaO6bdEGqJ39Efjx52V63ei7g5h96rmNIORZotfueZT6/iXrGUX82yFWkMHpQiyOunoTceiX4t2Svw3PW+C8cFCo56utW31o946hreB0jn+NVBUelWM7TvMueZT2/1a/FS9Hcp+c601cqUN+qYEo6S2+Pm1/0UpkMHtzfVz3jaHw1ybkOld/7q2ccodd5K0Ga1t17eU8l6k97byFIHty/UTsTb4amRtIK8bPM69VLv3XiZK1eZ8+qXTU3TWkJzf38mgSp0Th7L2g06JbAvadW4+y9oNOgi/Mzv244OoDwbw1tQfLa4ep3iA4gTra1BPkbm98yLnnSSgyR7107rAxahfUbJGc6qD8hG3SBe2luerd6aO7/DQuyZhn7H8K9iAF2k7n89pub3uWKCIbKMs/K7e8jy+8VjSdxFcmLo48R/hBo7v9YFKRpmb8+TvhDwD+5NizLNGsce6ZlWb+u3qHz+d6o3z7/c2ea+c9PVyf/Fu1MkCBBggQJEiRIkCBBggQJErwf/g9lht1GAaB+RQAAAABJRU5ErkJggg==;" parent="1" vertex="1"><mxGeometry x="-50" y="484" width="40" height="40" as="geometry"/></mxCell></root></mxGraphModel></diagram></mxfile>